<svg width="314" height="75" viewBox="0 0 314 75" fill="none" xmlns="http://www.w3.org/2000/svg">
<path d="M99.3984 26.3408C99.3984 26.9756 99.1787 27.293 98.7393 27.293C98.3486 27.293 98.0231 26.9023 97.7627 26.1211C97.5186 25.3236 97.0465 24.5749 96.3467 23.875C95.6468 23.1751 94.8086 22.5892 93.832 22.1172C91.7975 21.1243 89.6084 20.6279 87.2646 20.6279C84.9372 20.6279 82.9189 20.9453 81.21 21.5801C79.5173 22.1986 78.0605 23.0938 76.8398 24.2656C74.3008 26.7559 73.0312 30.1169 73.0312 34.3486C73.0312 39.0361 74.4635 42.9017 77.3281 45.9453C80.1764 48.9727 83.8223 50.4863 88.2656 50.4863C93.2135 50.4863 97.0384 48.2158 99.7402 43.6748C99.9193 43.3818 100.106 43.2191 100.302 43.1865C100.481 43.1865 100.66 43.3818 100.839 43.7725C101.018 44.1631 101.107 44.6025 101.107 45.0908C101.107 45.9046 100.416 46.9626 99.0322 48.2646C97.6488 49.5667 95.9642 50.6165 93.9785 51.4141C92.0091 52.2116 89.7061 52.6104 87.0693 52.6104C84.4489 52.6104 81.9587 52.1872 79.5986 51.3408C77.2549 50.4782 75.2611 49.3063 73.6172 47.8252C70.1667 44.7327 68.4414 40.8672 68.4414 36.2285C68.4414 30.9876 70.1829 26.7559 73.666 23.5332C77.1491 20.2943 81.7308 18.6748 87.4111 18.6748C91.5127 18.6748 94.9062 19.2201 97.5918 20.3105C98.1126 20.5384 98.4544 20.7581 98.6172 20.9697C98.9427 21.4255 99.1299 22.109 99.1787 23.0205C99.2438 23.9157 99.2845 24.5342 99.3008 24.876C99.3659 25.6735 99.3984 26.1618 99.3984 26.3408ZM105.6 52.3662C104.525 52.3662 103.988 52.0651 103.988 51.4629C103.988 50.9909 104.289 50.7549 104.892 50.7549L106.112 50.877C106.487 50.877 106.796 50.8118 107.04 50.6816C107.284 50.5352 107.471 50.234 107.602 49.7783C107.862 48.9482 107.992 47.109 107.992 44.2607V25.0713C107.992 23.5251 107.87 22.5241 107.626 22.0684C107.382 21.5964 107.121 21.279 106.845 21.1162C106.568 20.9535 106.12 20.8232 105.502 20.7256C104.9 20.6279 104.599 20.3757 104.599 19.9688C104.599 19.5944 105.014 19.3258 105.844 19.1631C107.781 18.7562 109.115 18.3493 109.848 17.9424C110.84 17.3727 111.516 17.0879 111.874 17.0879C112.248 17.0879 112.436 17.2751 112.436 17.6494C112.436 17.8285 112.403 18.0156 112.338 18.2109C111.996 19.0898 111.817 20.2048 111.801 21.5557C111.785 22.9066 111.776 24.0133 111.776 24.876V34.3975C113.127 31.8096 115.04 30.125 117.514 29.3438C118.295 29.0996 119.076 28.9775 119.857 28.9775C122.234 28.9775 124.073 29.6693 125.375 31.0527C126.677 32.4362 127.328 34.5928 127.328 37.5225V44.2607C127.328 47.109 127.426 48.8587 127.621 49.5098C127.816 50.1445 128.036 50.5352 128.28 50.6816C128.524 50.8118 128.834 50.877 129.208 50.877L130.429 50.7549C131.031 50.7549 131.332 50.9909 131.332 51.4629C131.332 52.0651 130.787 52.3662 129.696 52.3662C129.078 52.3662 128.419 52.3011 127.719 52.1709C127.019 52.057 126.262 52 125.448 52C124.651 52 123.886 52.057 123.153 52.1709C122.437 52.3011 121.77 52.3662 121.151 52.3662C120.061 52.3662 119.516 52.0651 119.516 51.4629C119.516 50.9909 119.817 50.7549 120.419 50.7549L121.64 50.877C122.014 50.877 122.323 50.8118 122.567 50.6816C122.812 50.5352 123.007 50.234 123.153 49.7783C123.414 48.9645 123.544 47.1253 123.544 44.2607V38.6943C123.544 34.0557 121.835 31.7363 118.417 31.7363C115.943 31.7363 114.063 33.0221 112.777 35.5938C112.322 36.4889 111.988 37.5469 111.776 38.7676V44.2607C111.776 47.109 111.874 48.8587 112.069 49.5098C112.265 50.1445 112.484 50.5352 112.729 50.6816C112.973 50.8118 113.282 50.877 113.656 50.877L114.877 50.7549C115.479 50.7549 115.78 50.9909 115.78 51.4629C115.78 52.0651 115.243 52.3662 114.169 52.3662C113.55 52.3662 112.908 52.3011 112.24 52.1709C111.573 52.057 110.808 52 109.945 52C109.083 52 108.293 52.057 107.577 52.1709C106.877 52.3011 106.218 52.3662 105.6 52.3662ZM136.947 49.2656C136.003 48.2077 135.271 46.9626 134.75 45.5303C134.245 44.098 133.993 42.5111 133.993 40.7695C133.993 39.0117 134.294 37.4004 134.896 35.9355C135.499 34.4707 136.329 33.2174 137.387 32.1758C139.584 30.0111 142.294 28.9287 145.517 28.9287C148.186 28.9287 150.342 29.8076 151.986 31.5654C153.549 33.2581 154.33 35.3496 154.33 37.8398C154.33 38.6536 154.216 39.2152 153.988 39.5244C153.777 39.8174 153.508 39.9964 153.183 40.0615C152.857 40.1104 152.41 40.1592 151.84 40.208C151.27 40.2406 150.578 40.2812 149.765 40.3301C148.951 40.3789 148.039 40.4277 147.03 40.4766C146.037 40.5254 145.02 40.5824 143.979 40.6475C141.586 40.7939 139.665 40.9404 138.217 41.0869C138.575 45.4652 140.251 48.3053 143.246 49.6074C144.223 50.0306 145.264 50.2422 146.371 50.2422C148.715 50.2422 150.57 49.5586 151.938 48.1914C152.523 47.6055 152.971 47.3125 153.28 47.3125C153.866 47.3125 154.159 47.6624 154.159 48.3623C154.159 48.7204 153.915 49.1517 153.427 49.6562C152.938 50.1608 152.239 50.6816 151.327 51.2188C149.716 52.1465 147.836 52.6104 145.688 52.6104C143.539 52.6104 141.781 52.3174 140.414 51.7314C139.063 51.1292 137.908 50.3073 136.947 49.2656ZM138.168 39.2803C145.801 38.8896 149.822 38.4746 150.229 38.0352C150.375 37.8724 150.448 37.3923 150.448 36.5947C150.448 35.7972 150.294 35.0241 149.984 34.2754C149.675 33.5104 149.26 32.8594 148.739 32.3223C147.665 31.2318 146.33 30.6865 144.735 30.6865C142.929 30.6865 141.407 31.4434 140.17 32.957C138.868 34.5358 138.201 36.6436 138.168 39.2803ZM158.114 40.8184C158.114 39.0931 158.424 37.498 159.042 36.0332C159.677 34.5521 160.531 33.2907 161.605 32.249C163.884 30.068 166.757 28.9775 170.224 28.9775C172.274 29.0426 174.057 29.5228 175.57 30.418C177.117 31.3132 177.922 32.4118 177.987 33.7139C177.987 34.4137 177.523 34.8776 176.596 35.1055C176.352 35.1543 176.132 35.1787 175.937 35.1787C175.188 35.1787 174.577 34.666 174.105 33.6406C173.178 31.7038 171.607 30.7354 169.394 30.7354C167.44 30.7354 165.805 31.541 164.486 33.1523C163.087 34.8613 162.387 37.1156 162.387 39.915C162.387 43.0238 163.111 45.5221 164.56 47.4102C166.073 49.3958 168.14 50.3887 170.761 50.3887C172.551 50.3887 174.122 49.7051 175.473 48.3379C176.059 47.752 176.498 47.459 176.791 47.459C177.393 47.459 177.694 47.7601 177.694 48.3623C177.694 48.9482 177.117 49.6644 175.961 50.5107C174.089 51.9105 171.786 52.6104 169.052 52.6104C165.78 52.6104 163.119 51.4954 161.068 49.2656C159.099 47.1009 158.114 44.2852 158.114 40.8184ZM182.113 52.3662C181.039 52.3662 180.502 52.0651 180.502 51.4629C180.502 50.9909 180.803 50.7549 181.405 50.7549L182.626 50.877C183 50.877 183.31 50.8118 183.554 50.6816C183.798 50.5352 183.985 50.234 184.115 49.7783C184.376 48.9482 184.506 47.109 184.506 44.2607V25.0713C184.506 23.5251 184.384 22.5241 184.14 22.0684C183.896 21.5964 183.635 21.279 183.358 21.1162C183.082 20.9535 182.634 20.8232 182.016 20.7256C181.413 20.6279 181.112 20.3757 181.112 19.9688C181.112 19.5944 181.527 19.3258 182.357 19.1631C184.294 18.7562 185.629 18.3493 186.361 17.9424C187.354 17.3727 188.03 17.0879 188.388 17.0879C188.762 17.0879 188.949 17.2751 188.949 17.6494C188.949 17.8285 188.917 18.0156 188.852 18.2109C188.51 19.0898 188.331 20.2048 188.314 21.5557C188.298 22.9066 188.29 24.0133 188.29 24.876V39.4756L195.614 32.4932C196.037 32.1025 196.249 31.7933 196.249 31.5654C196.249 31.3213 196.151 31.1423 195.956 31.0283C195.761 30.8981 195.541 30.776 195.297 30.6621C194.678 30.3854 194.369 30.0924 194.369 29.7832C194.369 29.3763 194.727 29.1729 195.443 29.1729L198.275 29.417L202.426 29.1729C203.484 29.1729 204.013 29.4089 204.013 29.8809C204.013 30.304 203.565 30.5563 202.67 30.6377C201.726 30.7354 200.871 31.069 200.106 31.6387C199.341 32.1921 198.699 32.6966 198.178 33.1523L193.246 37.4736L200.937 49.0215C201.669 50.2096 202.67 50.8037 203.939 50.8037C204.688 50.8037 205.144 50.8607 205.307 50.9746C205.486 51.0723 205.575 51.2594 205.575 51.5361C205.575 52.0895 205.095 52.3662 204.135 52.3662L201.303 52.0977L199.325 52.3662C198.804 52.3662 198.389 52.1872 198.08 51.8291C197.787 51.471 197.51 51.1292 197.25 50.8037L190.243 40.1348L188.29 41.8682V44.2607C188.29 48.1019 188.534 50.2259 189.022 50.6328C189.201 50.7956 189.429 50.877 189.706 50.877L190.927 50.7549C191.513 50.7549 191.806 50.9909 191.806 51.4629C191.806 52.0651 191.269 52.3662 190.194 52.3662C189.722 52.3662 189.185 52.3011 188.583 52.1709C187.981 52.057 187.257 52 186.41 52C185.58 52 184.807 52.057 184.091 52.1709C183.391 52.3011 182.732 52.3662 182.113 52.3662ZM222.177 52.3662C221.119 52.3662 220.59 52.0651 220.59 51.4629C220.59 50.9909 220.883 50.7549 221.469 50.7549L222.665 50.877C223.642 50.877 224.301 50.3317 224.643 49.2412C224.919 48.3135 225.058 46.6533 225.058 44.2607V27.0244C225.058 24.6318 224.944 23.0693 224.716 22.3369C224.488 21.5882 224.211 21.0837 223.886 20.8232C223.576 20.5465 223.17 20.4082 222.665 20.4082L221.469 20.5059C220.883 20.5059 220.59 20.2699 220.59 19.7979C220.59 19.1956 221.037 18.8945 221.933 18.8945C222.828 18.8945 223.674 18.9596 224.472 19.0898C225.285 19.2201 226.181 19.2852 227.157 19.2852C228.15 19.2852 229.021 19.2201 229.77 19.0898C230.535 18.9596 231.202 18.8945 231.771 18.8945C235.255 18.8945 238.07 19.9525 240.219 22.0684C242.172 24.0052 243.148 26.3408 243.148 29.0752C243.148 31.598 242.172 33.7952 240.219 35.667C238.298 37.4899 236.101 38.4014 233.627 38.4014C231.723 38.4014 230.421 38.027 229.721 37.2783C229.509 37.0505 229.403 36.8063 229.403 36.5459C229.403 36.2692 229.477 36.0658 229.623 35.9355C229.786 35.7891 229.981 35.7158 230.209 35.7158C230.437 35.7158 230.754 35.8704 231.161 36.1797C231.796 36.6354 232.585 36.8633 233.529 36.8633C234.473 36.8633 235.271 36.6842 235.922 36.3262C236.589 35.9518 237.151 35.431 237.606 34.7637C238.55 33.3802 239.022 31.5166 239.022 29.1729C239.022 26.5361 238.29 24.4365 236.825 22.874C235.409 21.3604 233.57 20.6035 231.308 20.6035C230.478 20.6035 229.867 20.7174 229.477 20.9453C229.086 21.1732 228.891 21.5638 228.891 22.1172V44.2607C228.891 46.7184 228.996 48.3053 229.208 49.0215C229.436 49.7214 229.704 50.2096 230.014 50.4863C230.339 50.7467 230.762 50.877 231.283 50.877L232.455 50.7549C233.041 50.7549 233.334 50.9909 233.334 51.4629C233.334 52.0651 232.813 52.3662 231.771 52.3662C231.234 52.3662 230.665 52.3174 230.062 52.2197C228.109 51.9105 226.433 51.8535 225.033 52.0488C223.65 52.2604 222.698 52.3662 222.177 52.3662ZM250.033 49.2656C249.089 48.2077 248.357 46.9626 247.836 45.5303C247.331 44.098 247.079 42.5111 247.079 40.7695C247.079 39.0117 247.38 37.4004 247.982 35.9355C248.585 34.4707 249.415 33.2174 250.473 32.1758C252.67 30.0111 255.38 28.9287 258.603 28.9287C261.272 28.9287 263.428 29.8076 265.072 31.5654C266.635 33.2581 267.416 35.3496 267.416 37.8398C267.416 38.6536 267.302 39.2152 267.074 39.5244C266.863 39.8174 266.594 39.9964 266.269 40.0615C265.943 40.1104 265.495 40.1592 264.926 40.208C264.356 40.2406 263.664 40.2812 262.851 40.3301C262.037 40.3789 261.125 40.4277 260.116 40.4766C259.123 40.5254 258.106 40.5824 257.064 40.6475C254.672 40.7939 252.751 40.9404 251.303 41.0869C251.661 45.4652 253.337 48.3053 256.332 49.6074C257.309 50.0306 258.35 50.2422 259.457 50.2422C261.801 50.2422 263.656 49.5586 265.023 48.1914C265.609 47.6055 266.057 47.3125 266.366 47.3125C266.952 47.3125 267.245 47.6624 267.245 48.3623C267.245 48.7204 267.001 49.1517 266.513 49.6562C266.024 50.1608 265.325 50.6816 264.413 51.2188C262.802 52.1465 260.922 52.6104 258.773 52.6104C256.625 52.6104 254.867 52.3174 253.5 51.7314C252.149 51.1292 250.993 50.3073 250.033 49.2656ZM251.254 39.2803C258.887 38.8896 262.908 38.4746 263.314 38.0352C263.461 37.8724 263.534 37.3923 263.534 36.5947C263.534 35.7972 263.38 35.0241 263.07 34.2754C262.761 33.5104 262.346 32.8594 261.825 32.3223C260.751 31.2318 259.416 30.6865 257.821 30.6865C256.015 30.6865 254.493 31.4434 253.256 32.957C251.954 34.5358 251.286 36.6436 251.254 39.2803ZM274.105 49.2656C273.161 48.2077 272.429 46.9626 271.908 45.5303C271.404 44.098 271.151 42.5111 271.151 40.7695C271.151 39.0117 271.452 37.4004 272.055 35.9355C272.657 34.4707 273.487 33.2174 274.545 32.1758C276.742 30.0111 279.452 28.9287 282.675 28.9287C285.344 28.9287 287.501 29.8076 289.145 31.5654C290.707 33.2581 291.488 35.3496 291.488 37.8398C291.488 38.6536 291.374 39.2152 291.146 39.5244C290.935 39.8174 290.666 39.9964 290.341 40.0615C290.015 40.1104 289.568 40.1592 288.998 40.208C288.428 40.2406 287.737 40.2812 286.923 40.3301C286.109 40.3789 285.198 40.4277 284.188 40.4766C283.196 40.5254 282.178 40.5824 281.137 40.6475C278.744 40.7939 276.824 40.9404 275.375 41.0869C275.733 45.4652 277.41 48.3053 280.404 49.6074C281.381 50.0306 282.423 50.2422 283.529 50.2422C285.873 50.2422 287.729 49.5586 289.096 48.1914C289.682 47.6055 290.129 47.3125 290.438 47.3125C291.024 47.3125 291.317 47.6624 291.317 48.3623C291.317 48.7204 291.073 49.1517 290.585 49.6562C290.097 50.1608 289.397 50.6816 288.485 51.2188C286.874 52.1465 284.994 52.6104 282.846 52.6104C280.697 52.6104 278.939 52.3174 277.572 51.7314C276.221 51.1292 275.066 50.3073 274.105 49.2656ZM275.326 39.2803C282.96 38.8896 286.98 38.4746 287.387 38.0352C287.533 37.8724 287.606 37.3923 287.606 36.5947C287.606 35.7972 287.452 35.0241 287.143 34.2754C286.833 33.5104 286.418 32.8594 285.897 32.3223C284.823 31.2318 283.489 30.6865 281.894 30.6865C280.087 30.6865 278.565 31.4434 277.328 32.957C276.026 34.5358 275.359 36.6436 275.326 39.2803ZM308.92 31.3945C308.92 31.834 308.66 32.0537 308.139 32.0537L301.205 31.9805V45.5059C301.205 48.0286 301.815 49.526 303.036 49.998C303.41 50.1445 303.85 50.2178 304.354 50.2178C304.859 50.2178 305.315 50.1364 305.722 49.9736C306.145 49.7946 306.519 49.6074 306.845 49.4121C307.17 49.2168 307.447 49.0378 307.675 48.875C307.903 48.696 308.114 48.6064 308.31 48.6064C308.521 48.6064 308.708 48.7204 308.871 48.9482C309.034 49.1761 309.115 49.404 309.115 49.6318C309.115 50.2015 308.391 50.8851 306.942 51.6826C305.836 52.3011 304.444 52.6104 302.768 52.6104C301.091 52.6104 299.781 52.0163 298.837 50.8281C297.893 49.6237 297.421 47.9635 297.421 45.8477V31.9072H295.932C294.76 31.9072 294.174 31.6061 294.174 31.0039C294.174 30.5645 294.499 30.2633 295.15 30.1006C295.801 29.9378 296.363 29.653 296.835 29.2461C297.307 28.8229 297.689 28.3509 297.982 27.8301C298.292 27.293 298.536 26.7396 298.715 26.1699C298.894 25.6003 299.057 25.0794 299.203 24.6074C299.561 23.5332 299.968 22.9961 300.424 22.9961C300.945 22.9961 301.205 23.46 301.205 24.3877V29.9053L308.065 29.7588C308.407 29.7588 308.676 30.1657 308.871 30.9795C308.904 31.1585 308.92 31.2969 308.92 31.3945Z" fill="black"/>
<path d="M3.98279 44.0632L18.6495 58.7299L55.3161 7.39655" stroke="#61CD57" stroke-width="5"/>
</svg>
