<svg width="27" height="24" fill="none" xmlns="http://www.w3.org/2000/svg">
    <path fill-rule="evenodd" clip-rule="evenodd"
          d="M10.721 15.466a1 1 0 001.1.653l12.766-2.036a1 1 0 00.824-.792l1.354-6.792a1 1 0 00-.964-1.196l-17.36-.28a1 1 0 00-.958 1.335l3.238 9.109zM11.326 23.36a2.326 2.326 0 100-4.653 2.326 2.326 0 000 4.652zM22.957 23.36a2.326 2.326 0 100-4.653 2.326 2.326 0 000 4.652z"
          fill="#000"/>
    <path fill-rule="evenodd" clip-rule="evenodd"
          d="M4.5 2C6.433 2 8 1.776 8 1.5S6.433 1 4.5 1 1 1.224 1 1.5s1.567.5 3.5.5z" fill="#fff" stroke="#000"/>
</svg>